<?xml version="1.0" encoding="UTF-8"?>
<svg id="_레이어_1" data-name="레이어 1" xmlns="http://www.w3.org/2000/svg" viewBox="0 0 378.86 265.75">
  <defs>
    <style>
      .cls-1 {
        fill: #7ad392;
      }

      .cls-1, .cls-2, .cls-3, .cls-4, .cls-5 {
        stroke-width: 0px;
      }

      .cls-2 {
        fill: #9cffdb;
      }

      .cls-3 {
        fill: #446a72;
      }

      .cls-4 {
        fill: #feffeb;
      }

      .cls-5 {
        fill: #88eff2;
      }
    </style>
  </defs>
  <path class="cls-3" d="M318.65,176.34c.62,1.14,3.92-1.47,4.5-1.75,39.93-19.21,32.01-38.02,53.75-37l1.75,1.75c-1.31,6.25.03,31.14.17,36.38.13,5.06-.09,6.86-.08,7.11.61,9.23-2.41,36.48-7.59,45.51-12.27,21.39-83.07,42.68-108.75,20.75-11.79-10.07-9.03-26.5-10.5-26.5-3.52,0-1.32,44.98-47.5,41-33.86-2.92-19.71-31.68-22-32-1.65-.23-6.4,21.01-16.5,28.5-12.42,9.21-33.58,6.42-45.25-3-19.22-15.53-1.83-43.22-3-50.25-.07-.42-.95-.25-1-.25-.43,0-.5-.46-.5-.5-.08-3.5,6.97-51.76,8.5-69.5.84-9.75,1.65-19.5,2.5-29.25-11.17-.74-8.94.34-11,9.25-1.62,6.97-2.39,14.26-4,21.25-2.86,12.43-24.35,98.38-27,103-9.15,15.96-57.99-9.61-63.5-18.5-1.69-2.73-3.6-8.6-3.5-11.75,9.59-27.44,18.56-55.19,28.5-82.5.39-1.07,5.36-11.64,4.75-12-16.67,6.1-45.24,14.07-49.75-11-2.77-15.4,3.39-39.49,15.75-50,9.5-8.08,28.9-13.58,41-16.5,34.67-8.37,158.16-26.65,188.5-20,10.29,2.26,20.42,13.5,25.75,22.25,8.41,13.82,7.86,26.07,9.25,26.25,4.23-2.8,3.68-4.46,4.95-10.07.09-.39.79-4.06,1.3-6.18,2.12-8.9,17.73-38.63,22.25-39.75,7.53-1.87,24.23,5.22,30.5,10,25.16,19.2,14.5,49.27,14.25,53.75"/>
  <path class="cls-4" d="M317.65,165.56c.62,1.14,3.92-1.47,4.5-1.75,39.93-19.21,32.01-38.02,53.75-37l1.75,1.75c-1.31,6.25.03,31.14.17,36.38.13,5.06-.09,6.86-.08,7.11.61,9.23-2.41,36.48-7.59,45.51-12.27,21.39-83.07,42.68-108.75,20.75-11.79-10.07-9.03-26.5-10.5-26.5-3.52,0-1.32,44.98-47.5,41-33.86-2.92-19.71-31.68-22-32-1.65-.23-6.4,21.01-16.5,28.5-12.42,9.21-33.58,6.42-45.25-3-19.22-15.53-1.83-43.22-3-50.25-.07-.42-.92-1.8-.95-1.84-.46-.72-1.35-6.26-1.37-6.3-1.48-3.62,7.79-44.37,9.32-62.11.84-9.75,1.65-19.5,2.5-29.25-11.17-.74-8.94.34-11,9.25-1.62,6.97-2.39,14.26-4,21.25-2.86,12.43-24.35,98.38-27,103-9.15,15.96-57.99-9.61-63.5-18.5-1.69-2.73-3.6-8.6-3.5-11.75,9.59-27.44,18.56-55.19,28.5-82.5.39-1.07,5.36-11.64,4.75-12-16.67,6.1-45.24,14.07-49.75-11-2.77-15.4,3.39-39.49,15.75-50,9.5-8.08,28.9-13.58,41-16.5C92.08,19.44,215.56,1.15,245.9,7.81c10.29,2.26,20.42,13.5,25.75,22.25,8.41,13.82,7.86,26.07,9.25,26.25,4.23-2.8,3.68-4.46,4.95-10.07.09-.39.79-4.06,1.3-6.18,2.12-8.9,17.73-38.63,22.25-39.75,7.53-1.87,24.23,5.22,30.5,10,25.16,19.2,14.5,49.27,14.25,53.75"/>
  <path class="cls-2" d="M223.4,39.31c96.06,2.73,16.84,130.67,4.25,184.75-5.18,14.56-29.86,11.86-31.5,5.5-1.09-4.22,2.7-74.89.75-87.25-5.9,11.78-39.65,86.33-42.75,90.25-6.27,7.93-27.56,1.88-28-5.5-.1-1.77,4.83-29.45,5.5-35,4.13-34.22,7.19-68.58,11.75-102.75l32.75-1.75c-9.62,36.18-18.08,72.61-24.5,109.5q22.75-48.75,45.5-97.5c1.32-5.14,7.32-5.54,11.75-4.75,23.4,4.19,9.07,82.96,8.25,100.25-.13,2.7-.38,5.62,1.5,1.5,1.15-2.52,10.96-32.84,12-37,6.83-27.4,13.57-73.12-20.5-84.5l13.25-35.75Z"/>
  <path class="cls-1" d="M195.4,40.81l4.25.75c-2.24,3.46-9.92,29.09-11.75,29.75-1.79.65-32.27,1.93-38,2.5-15.52,1.54-31.01,3.69-46.5,5.5-4.41,16.59-7.09,33.6-11.25,50.25-7.25,29.03-17.12,57.37-24,86.5-4.32-.72-34.48-13.65-35-15.5,13.74-38.07,26.64-76.45,35.5-116l-1.25-.75-43,9c1.23-3.68,11.24-28.05,12.5-29,2.39-1.8,51.89-9.43,59-10.5,33.05-4.96,66.4-7.9,99.5-12.5Z"/>
  <path class="cls-5" d="M306.4,35.81c4.38,1.68,32.26,14.62,33.5,16,.77.86.87.89.75,2.25q-26.75,71-53.5,142c24.63,5.46,52.29-7.68,72.25-21.75-.62,7.75-3.38,32.85-8.5,37.5-10.9,9.89-79.96,33.8-84.25.25-.27-2.09-.16-10.27,0-13,1.76-30.6,30.83-126.99,39.75-163.25Z"/>
</svg>